<svg id="Warstwa_1" data-name="Warstwa 1" xmlns="http://www.w3.org/2000/svg" xmlns:xlink="http://www.w3.org/1999/xlink" viewBox="0 0 1920 3389">
  <defs>
    <style>
      .cls-1 {
        fill: none;
      }

      .cls-2 {
        clip-path: url(#clip-path);
      }

      .cls-3 {
        fill: url(#Gradient_bez_nazwy_2);
      }

      .cls-4 {
        clip-path: url(#clip-path-2);
      }

      .cls-5 {
        fill: url(#Gradient_bez_nazwy_4);
      }

      .cls-6 {
        clip-path: url(#clip-path-3);
      }

      .cls-7 {
        fill: url(#Gradient_bez_nazwy_4-2);
      }

      .cls-8 {
        clip-path: url(#clip-path-4);
      }

      .cls-9 {
        fill: url(#Gradient_bez_nazwy_4-3);
      }

      .cls-10 {
        clip-path: url(#clip-path-5);
      }

      .cls-11 {
        fill: #fff;
      }
    </style>
    <clipPath id="clip-path">
      <rect class="cls-1" x="-919.86367" y="-836.85781" width="1225.61696" height="1426.48501" transform="translate(-178.09985 -428.46634) rotate(-89)"/>
    </clipPath>
    <linearGradient id="Gradient_bez_nazwy_2" data-name="Gradient bez nazwy 2" x1="0.28258" y1="3587.32752" x2="-0.21142" y2="3587.27152" gradientTransform="matrix(-21.38991, 1225.42712, 1426.26653, 24.89557, -5116738.11209, -89177.20334)" gradientUnits="userSpaceOnUse">
      <stop offset="0" stop-color="#ffb300"/>
      <stop offset="1" stop-color="#ff9609"/>
    </linearGradient>
    <clipPath id="clip-path-2">
      <rect class="cls-1" x="1189.7699" y="-111.2754" width="1426.40078" height="1225.5446" transform="matrix(0.30902, -0.95106, 0.95106, 0.30902, 837.96609, 2156.35675)"/>
    </clipPath>
    <linearGradient id="Gradient_bez_nazwy_4" data-name="Gradient bez nazwy 4" x1="-0.2822" y1="3589.11433" x2="-0.4212" y2="3589.96133" gradientTransform="matrix(1165.55866, 378.71464, 440.78346, -1356.58602, -1579902.53902, 4870164.69247)" gradientUnits="userSpaceOnUse">
      <stop offset="0" stop-color="#ffc300"/>
      <stop offset="1" stop-color="#f90"/>
    </linearGradient>
    <clipPath id="clip-path-3">
      <rect class="cls-1" x="-146.28968" y="968.63585" width="957.90217" height="1094.99123" transform="translate(-896.90376 568.77317) rotate(-40.01096)"/>
    </clipPath>
    <linearGradient id="Gradient_bez_nazwy_4-2" x1="1.56332" y1="3586.51088" x2="1.32832" y2="3585.58188" gradientTransform="matrix(-733.67883, 615.86881, 704.00479, 838.67441, -2523193.72076, -3006868.46241)" xlink:href="#Gradient_bez_nazwy_4"/>
    <clipPath id="clip-path-4">
      <rect class="cls-1" x="1602.02953" y="2396.40849" width="1094.87903" height="957.80402" transform="translate(-1388.28989 3485.13783) rotate(-63)"/>
    </clipPath>
    <linearGradient id="Gradient_bez_nazwy_4-3" x1="4.21516" y1="3587.96562" x2="3.98016" y2="3587.03662" gradientTransform="matrix(-853.41077, -434.8345, -497.06295, 975.54099, 1788834.25724, -3495078.96446)" xlink:href="#Gradient_bez_nazwy_4"/>
    <clipPath id="clip-path-5">
      <rect class="cls-1" x="270.74545" y="37.94973" width="79" height="76"/>
    </clipPath>
  </defs>
  <g id="Group_8" data-name="Group 8">
    <g class="cls-2">
      <g id="Group_1" data-name="Group 1">
        <path id="Path_32" data-name="Path 32" class="cls-3" d="M-254.73708-719.90153c101.22349-39.31239,245.38934,6.3036,353.1495,93.87061,108.439,88.27,181.105,217.8829,239.28706,362.8384,57.55026,145.56758,99.30694,306.38681,30.6823,379.45326C299.0773,188.62425,118.75881,173.843-27.84143,242.02287c-227.45884,105.78439-227.49889,198.49678-388.40642,233.736-207.39231,45.42246-521.85263-67.31779-592.75066-312.25552-57.27911-197.88783,63.84639-414.93993,203.92339-509.51866,108.75106-73.42822,164.462-29.50923,294.71132-120.2379C-355.94708-573.81463-371.318-674.62925-254.73708-719.90153"/>
      </g>
    </g>
  </g>
  <g id="Group_2" data-name="Group 2">
    <g class="cls-4">
      <g id="Group_1-2" data-name="Group 1-2">
        <path id="Path_32-2" data-name="Path 32-2" class="cls-5" d="M1348.06834,277.14016C1340.0692,168.85221,1425.8371,44.33,1541.07717-33.11471c116.11074-77.88835,261.29715-109.482,416.9204-122.73988,156.02383-12.47481,322.01469-5.38813,371.82153,81.59543,48.93589,87.42814-17.91579,255.53594,4.42167,415.65489,34.65721,248.4337,123.30154,275.577,109.95678,439.74689-17.19719,211.598-216.93908,479.33975-471.88772,475.5269-205.9757-3.0806-378.11958-182.363-427.608-343.962-38.42159-125.46014,19.86327-165.89369-28.81671-316.96933-57.71082-179.10686-158.60835-193.88222-167.81679-318.598"/>
      </g>
    </g>
  </g>
  <g id="Group_14" data-name="Group 14">
    <g class="cls-6">
      <g id="Group_1-3" data-name="Group 1-3">
        <path id="Path_32-3" data-name="Path 32-3" class="cls-7" d="M710.78356,1240.7223c74.19861,38.45965,119.93091,145.33033,122.574,252.62629,2.57032,108.04775-37.27548,216.576-93.46831,324.58586-56.87315,107.95544-130.70517,214.58729-208.38489,212.30461-77.61068-3.03268-159.755-115.027-273.84556-164.96644C80.641,1787.79348,25.91814,1835.2961-75.94019,1760.19126c-131.29951-96.808-223.25035-336.70149-114.48323-503.33207,87.874-134.62215,276.95172-175.75992,403.32655-143.13225,98.116,25.32939,100.27947,80.10715,219.43518,109.01595,141.2636,34.26953,192.99228-26.31825,278.44525,17.97941"/>
      </g>
    </g>
  </g>
  <g id="Group_21" data-name="Group 21">
    <g class="cls-8">
      <g id="Group_1-4" data-name="Group 1-4">
        <path id="Path_32-4" data-name="Path 32-4" class="cls-9" d="M2550.6415,3115.81493c-6.42587,83.31781-86.9396,167.14832-184.67179,211.48191-98.45261,44.56022-213.91164,50.26466-335.27727,40.71947-121.58121-10.19268-248.56677-36.51261-276.8007-108.90707-27.51659-72.62379,43.49393-191.97186,44.90836-316.49268,2.19029-193.199-62.90526-225.02011-33.54958-348.10877,37.83593-158.66426,222.74614-336.98566,418.60233-301.93888,158.23381,28.31473,269.93822,186.29308,289.2562,315.36085,15.00046,100.20584-34.5768,123.58881-14.65483,244.5592,23.621,143.41383,99.592,167.36888,92.18728,263.326"/>
      </g>
    </g>
  </g>
  <g class="cls-10">
    <g id="Mask_Group_1" data-name="Mask Group 1">
      <g id="Logo_SU_logo_kontrast" data-name="Logo SU logo kontrast">
        <g id="Group_9" data-name="Group 9">
          <path id="Path_69" data-name="Path 69" class="cls-11" d="M356.40044,54.75173v-.9h1.869v.834a3.955,3.955,0,0,0,7.9,0c0-2.378-.95-3.4-4.565-5-4.136-1.853-5.117-3.552-5.117-6.27,0-3.181,2.145-5.467,5.791-5.467,3.677,0,5.729,2.193,5.729,5.467v.525h-1.838v-.494a3.863,3.863,0,0,0-7.721-.093c0,2.224,1.011,3.181,4.657,4.849,4.044,1.853,5.055,3.552,5.055,6.424,0,3.243-2.145,5.559-5.944,5.559C358.48442,60.18773,356.40044,57.96373,356.40044,54.75173Z"/>
          <path id="Path_70" data-name="Path 70" class="cls-11" d="M383.54741,55.12172h-7.259l-1.195,4.756h-1.869l5.423-21.62h2.635l5.515,21.62h-2.022Zm-.429-1.76-3.248-12.725-3.156,12.728Z"/>
          <path id="Path_71" data-name="Path 71" class="cls-11" d="M392.88942,38.25873h2.911l4.994,18.037,4.964-18.037h2.972v21.62h-1.93v-18.84l-5.27,18.84h-1.561l-5.3-18.84v18.84h-1.78Z"/>
          <path id="Path_72" data-name="Path 72" class="cls-11" d="M415.71645,54.19473v-10.254c0-3.892,2.145-5.992,6.036-5.992s6.036,2.1,6.036,5.992v10.254c0,3.892-2.145,5.992-6.036,5.992S415.71645,58.08674,415.71645,54.19473Zm10.111.154v-10.562c0-2.78-1.471-4.108-4.075-4.108s-4.075,1.328-4.075,4.108v10.563c0,2.78,1.471,4.108,4.075,4.108s4.075-1.328,4.075-4.108Z"/>
          <path id="Path_73" data-name="Path 73" class="cls-11" d="M434.77345,38.25873h5.638c4.044,0,5.974,1.7,5.974,5.281v.494c0,2.9-1.042,4.478-3.462,5.034v.031c2.421.463,3.462,2.008,3.462,5.034v2.78a9.04155,9.04155,0,0,0,.368,2.965h-1.992a10.03132,10.03132,0,0,1-.337-2.965v-2.873c0-2.872-1.2-3.953-4.381-3.953h-3.309v9.791h-1.961Zm5.209,10.069c3.094,0,4.442-1.2,4.442-3.923v-.463c0-2.811-1.195-3.953-4.044-3.953h-3.646v8.339Z"/>
          <path id="Path_74" data-name="Path 74" class="cls-11" d="M452.35945,58.18073l9.529-18.192h-9.161v-1.73h11.4v1.7l-9.559,18.192h9.559v1.73h-11.768Z"/>
          <path id="Path_75" data-name="Path 75" class="cls-11" d="M483.36543,63.33773v1.235a4.991,4.991,0,0,1-1.991.4c-1.777,0-2.758-.741-2.758-2.038,0-1.174.521-2.1,2.145-3.058l-1.225-4.756h-7.261l-1.195,4.756h-1.869l5.423-21.62h2.635l5.515,21.62h-.429c-1.562.618-2.175,1.637-2.175,2.533,0,.957.674,1.266,1.685,1.266A3.66928,3.66928,0,0,0,483.36543,63.33773Zm-4.259-9.976-3.248-12.725-3.15606,12.729Z"/>
          <path id="Path_76" data-name="Path 76" class="cls-11" d="M488.87941,38.25873h5.883c4.075,0,5.975,1.915,5.975,5.9v9.822c0,3.984-1.9,5.9-5.975,5.9h-5.883Zm5.821,19.89c2.88,0,4.075-1.2,4.075-4.108v-9.945c0-2.9-1.195-4.108-4.075-4.108h-3.86v18.161Z"/>
        </g>
        <g id="Group_10" data-name="Group 10">
          <path id="Path_77" data-name="Path 77" class="cls-11" d="M356.48745,84.79373v-13.917h1.72v14.052c0,2.4,1.263,3.587,3.521,3.587s3.494-1.187,3.494-3.587v-14.052h1.693v13.917c0,3.344-1.828,5.232-5.214,5.232C358.28844,90.02673,356.48745,88.11172,356.48745,84.79373Z"/>
          <path id="Path_78" data-name="Path 78" class="cls-11" d="M372.90847,84.87473v-9.117c0-3.264,1.908-5.152,5.107-5.152,3.333,0,5.188,1.888,5.188,5.152v1.241h-1.64v-1.322a3.212,3.212,0,0,0-3.521-3.56c-2.07,0-3.414,1.214-3.414,3.56v9.278c0,2.346,1.344,3.56,3.414,3.56a3.21195,3.21195,0,0,0,3.521-3.56v-1.861h1.64v1.78c0,3.264-1.855,5.152-5.187,5.152C374.81747,90.02673,372.90847,88.13874,372.90847,84.87473Z"/>
          <path id="Path_79" data-name="Path 79" class="cls-11" d="M388.09444,88.27374l8.359-15.886h-8.037v-1.51h10v1.483l-8.386,15.886h8.386v1.51h-10.322Z"/>
          <path id="Path_80" data-name="Path 80" class="cls-11" d="M403.9255,70.87673h2.338l6.8,15.347v-15.347h1.64v18.876h-1.855l-7.311-16.534v16.534h-1.613Z"/>
          <path id="Path_81" data-name="Path 81" class="cls-11" d="M421.09945,70.87673h1.72v18.876h-1.72Z"/>
          <path id="Path_82" data-name="Path 82" class="cls-11" d="M428.95144,84.79374v-8.955c0-3.4,1.881-5.232,5.295-5.232s5.295,1.834,5.295,5.232v8.955c0,3.4-1.881,5.232-5.295,5.232S428.95144,88.19273,428.95144,84.79374Zm8.87.135v-9.224c0-2.427-1.29-3.587-3.575-3.587s-3.575,1.16-3.575,3.587v9.224c0,2.427,1.29,3.587,3.575,3.587S437.82143,87.35574,437.82143,84.92873Z"/>
          <path id="Path_83" data-name="Path 83" class="cls-11" d="M444.50948,70.87673h1.747l2.93,16.561,3.2-16.561h1.613l3.2,16.561,2.957-16.561h1.586l-3.44,18.88h-2.123l-2.983-15.59-3.01,15.59h-2.2Z"/>
          <path id="Path_84" data-name="Path 84" class="cls-11" d="M466.44149,85.27973v-.782h1.641v.728a3.471,3.471,0,0,0,6.935,0c0-2.077-.833-2.967-4-4.369-3.628-1.618-4.489-3.1-4.489-5.475,0-2.778,1.881-4.774,5.08-4.774,3.225,0,5.026,1.915,5.026,4.774v.458h-1.613v-.431a3.39,3.39,0,0,0-6.773-.081c0,1.942.887,2.778,4.085,4.235,3.548,1.618,4.435,3.1,4.435,5.61,0,2.832-1.881,4.855-5.214,4.855C468.26949,90.02673,466.44149,88.08474,466.44149,85.27973Z"/>
          <path id="Path_85" data-name="Path 85" class="cls-11" d="M487.08346,79.45272l-2.9,3.884v6.416h-1.72v-18.88h1.72v10.033l7.526-10.033h1.908l-5.322,7.12,5.4,11.76h-1.908Z"/>
          <path id="Path_86" data-name="Path 86" class="cls-11" d="M499.01644,70.87673h1.72v18.876h-1.72Z"/>
        </g>
        <g id="Group_11" data-name="Group 11">
          <path id="Path_87" data-name="Path 87" class="cls-11" d="M356.40044,100.0087h1.262v13.672h-1.262Z"/>
          <path id="Path_88" data-name="Path 88" class="cls-11" d="M367.99342,100.0087h1.262v12.579h5.4v1.094h-6.664Z"/>
          <path id="Path_89" data-name="Path 89" class="cls-11" d="M378.24641,110.08774v-6.485c0-2.461,1.38-3.789,3.884-3.789s3.884,1.328,3.884,3.789v6.485c0,2.461-1.38,3.789-3.884,3.789S378.24641,112.54874,378.24641,110.08774Zm6.506.1v-6.68a2.622,2.622,0,0,0-5.244,0v6.68a2.6225,2.6225,0,1,0,5.245,0Z"/>
          <path id="Path_90" data-name="Path 90" class="cls-11" d="M395.37843,103.97373h1.222l2.07,8.418,2.031-8.418h1.38l2.031,8.418,2.051-8.418h1.144l-2.386,9.707h-1.518l-2.011-8.457-2.031,8.457h-1.577Z"/>
          <path id="Path_91" data-name="Path 91" class="cls-11" d="M416.64748,110.12674v-6.524c0-2.441,1.38-3.789,3.825-3.789,2.484,0,3.884,1.348,3.884,3.789v.645h-1.2v-.742a2.6225,2.6225,0,1,0-5.245,0v6.68a2.6225,2.6225,0,0,0,5.245,0v-2.7h-2.409v-1.152h3.608v3.789c0,2.422-1.38,3.75-3.825,3.75C418.03145,113.87674,416.64748,112.54874,416.64748,110.12674Z"/>
          <path id="Path_92" data-name="Path 92" class="cls-11" d="M428.6974,100.0087h1.222v13.672h-1.222Z"/>
          <path id="Path_93" data-name="Path 93" class="cls-11" d="M434.49342,103.97373h1.222v9.707h-1.222Zm.02-3.984h1.222v2.129h-1.222Z"/>
          <path id="Path_94" data-name="Path 94" class="cls-11" d="M439.57948,103.97373h1.223l2.07,8.418,2.031-8.418h1.38l2.031,8.418,2.051-8.418h1.143l-2.386,9.707h-1.518l-2.011-8.457-2.031,8.457h-1.57709Z"/>
          <path id="Path_95" data-name="Path 95" class="cls-11" d="M455.36946,103.97373h1.222v9.707h-1.222Zm.02-3.984h1.222v2.129h-1.222Z"/>
          <path id="Path_96" data-name="Path 96" class="cls-11" d="M460.91145,110.38074v-3.047a3.2,3.2,0,0,1,3.51-3.555c2.287,0,3.391,1.27,3.431,3.418v.02h-1.163v-.039a2.043,2.043,0,0,0-2.267-2.344,2.10809,2.10809,0,0,0-2.287,2.344v3.32a2.278,2.278,0,1,0,4.555.09579q.001-.04788,0-.09579v-.273h1.163v.156c0,2.207-1.1,3.535-3.43,3.535a3.173,3.173,0,0,1-3.512-3.535Z"/>
          <path id="Path_97" data-name="Path 97" class="cls-11" d="M477.57149,113.68073a5.97657,5.97657,0,0,1-.2-1.7,3.132,3.132,0,0,1-3.115,1.895c-1.774,0-2.819-.957-2.819-2.559,0-1.523.789-2.383,3-2.93,2.425-.625,2.8-.84,2.8-1.68-.02-1.211-.769-1.875-2.09-1.875-1.439,0-2.189.82-2.189,1.914h-1.143c0-1.8,1.262-2.969,3.372-2.969,2.188,0,3.273,1.152,3.273,3.145v4.18a10.36271,10.36271,0,0,0,.217,2.578Zm-.335-3.867v-1.445a5.88814,5.88814,0,0,1-2.524.977c-1.439.391-2.05.859-2.05,1.934,0,1,.651,1.543,1.833,1.543,1.676,0,2.741-1,2.741-3.008Z"/>
          <path id="Path_98" data-name="Path 98" class="cls-11" d="M482.71645,110.38074v-3.047a3.2,3.2,0,0,1,3.509-3.555c2.287,0,3.391,1.27,3.431,3.418v.02h-1.163v-.039a2.043,2.043,0,0,0-2.267-2.344,2.10809,2.10809,0,0,0-2.287,2.344v3.32a2.278,2.278,0,1,0,4.554.13443q.002-.0672,0-.13443v-.273h1.163v.156c0,2.207-1.1,3.535-3.431,3.535a3.173,3.173,0,0,1-3.509-3.535Z"/>
          <path id="Path_99" data-name="Path 99" class="cls-11" d="M500.73842,106.98172v6.7h-1.223v-6.524c0-1.563-.631-2.324-1.932-2.324-1.636,0-2.583,1.113-2.583,3.008v5.84h-1.223v-13.673h1.223v5.352a3.1,3.1,0,0,1,2.9-1.582C499.77241,103.77872,500.73842,104.87171,500.73842,106.98172Z"/>
        </g>
        <path id="Path_100" data-name="Path 100" class="cls-11" d="M272.83945,68.33673v45.579h0a30.386,30.386,0,0,0,30.386-30.386h0v-45.58h0a30.386,30.386,0,0,0-30.386,30.386h0Z"/>
        <path id="Path_101" data-name="Path 101" class="cls-11" d="M310.82243,37.94973v30.387a15.193,15.193,0,0,0,15.193,15.193h0a15.193,15.193,0,0,0,15.193-15.193v-30.387Z"/>
      </g>
    </g>
  </g>
</svg>
